<mxfile host="65bd71144e">
    <diagram id="y2gNrxA8x9AX8-hPL_HN" name="Page-1">
        <mxGraphModel dx="1672" dy="608" grid="1" gridSize="10" guides="1" tooltips="1" connect="1" arrows="1" fold="1" page="1" pageScale="1" pageWidth="850" pageHeight="1100" math="0" shadow="0">
            <root>
                <mxCell id="0"/>
                <mxCell id="1" parent="0"/>
                <mxCell id="51" style="edgeStyle=none;html=1;exitX=0;exitY=0.5;exitDx=0;exitDy=0;entryX=0.5;entryY=0;entryDx=0;entryDy=0;" parent="1" source="3" target="4" edge="1">
                    <mxGeometry relative="1" as="geometry"/>
                </mxCell>
                <mxCell id="52" style="edgeStyle=none;html=1;exitX=1;exitY=0.5;exitDx=0;exitDy=0;entryX=0.5;entryY=0;entryDx=0;entryDy=0;" parent="1" source="3" target="10" edge="1">
                    <mxGeometry relative="1" as="geometry"/>
                </mxCell>
                <mxCell id="66" style="html=1;exitX=0.5;exitY=1;exitDx=0;exitDy=0;entryX=0.5;entryY=0;entryDx=0;entryDy=0;" edge="1" parent="1" source="3" target="9">
                    <mxGeometry relative="1" as="geometry"/>
                </mxCell>
                <mxCell id="3" value="App&lt;br&gt;Initial Fetch (Main Data)" style="whiteSpace=wrap;html=1;" parent="1" vertex="1">
                    <mxGeometry x="-550" width="150" height="80" as="geometry"/>
                </mxCell>
                <mxCell id="39" style="edgeStyle=none;html=1;exitX=0.5;exitY=1;exitDx=0;exitDy=0;entryX=0.5;entryY=0;entryDx=0;entryDy=0;" parent="1" source="4" target="34" edge="1">
                    <mxGeometry relative="1" as="geometry"/>
                </mxCell>
                <mxCell id="4" value="Header&lt;br&gt;Memestagram" style="whiteSpace=wrap;html=1;" parent="1" vertex="1">
                    <mxGeometry x="-810" y="110" width="120" height="60" as="geometry"/>
                </mxCell>
                <mxCell id="67" style="edgeStyle=none;html=1;exitX=0.5;exitY=1;exitDx=0;exitDy=0;entryX=0.5;entryY=0;entryDx=0;entryDy=0;" edge="1" parent="1" source="9" target="47">
                    <mxGeometry relative="1" as="geometry"/>
                </mxCell>
                <mxCell id="68" style="edgeStyle=none;html=1;exitX=0.5;exitY=1;exitDx=0;exitDy=0;entryX=0.5;entryY=0;entryDx=0;entryDy=0;" edge="1" parent="1" source="9" target="12">
                    <mxGeometry relative="1" as="geometry"/>
                </mxCell>
                <mxCell id="9" value="Filter Bar&lt;br&gt;Genre" style="whiteSpace=wrap;html=1;" parent="1" vertex="1">
                    <mxGeometry x="-535" y="150" width="120" height="60" as="geometry"/>
                </mxCell>
                <mxCell id="10" value="Form&lt;br&gt;Add Post (Form)" style="whiteSpace=wrap;html=1;" parent="1" vertex="1">
                    <mxGeometry x="-250" y="100" width="120" height="60" as="geometry"/>
                </mxCell>
                <mxCell id="45" style="edgeStyle=none;html=1;exitX=0.5;exitY=1;exitDx=0;exitDy=0;entryX=0.5;entryY=0;entryDx=0;entryDy=0;" parent="1" source="12" target="13" edge="1">
                    <mxGeometry relative="1" as="geometry"/>
                </mxCell>
                <mxCell id="12" value="Main Content/Post List" style="whiteSpace=wrap;html=1;" parent="1" vertex="1">
                    <mxGeometry x="-400" y="300" width="120" height="60" as="geometry"/>
                </mxCell>
                <mxCell id="13" value="Post" style="whiteSpace=wrap;html=1;" parent="1" vertex="1">
                    <mxGeometry x="-400" y="465" width="120" height="60" as="geometry"/>
                </mxCell>
                <mxCell id="17" value="Post" style="whiteSpace=wrap;html=1;" parent="1" vertex="1">
                    <mxGeometry x="-390" y="475" width="120" height="60" as="geometry"/>
                </mxCell>
                <mxCell id="18" value="Post Card" style="whiteSpace=wrap;html=1;" parent="1" vertex="1">
                    <mxGeometry x="-380" y="485" width="120" height="60" as="geometry"/>
                </mxCell>
                <mxCell id="19" style="edgeStyle=none;html=1;entryX=0.5;entryY=0;entryDx=0;entryDy=0;exitX=0.5;exitY=1;exitDx=0;exitDy=0;" parent="1" source="18" target="20" edge="1">
                    <mxGeometry relative="1" as="geometry">
                        <mxPoint x="-290" y="585" as="sourcePoint"/>
                        <mxPoint x="-320" y="635" as="targetPoint"/>
                    </mxGeometry>
                </mxCell>
                <mxCell id="20" value="Post Details/Comments" style="whiteSpace=wrap;html=1;" parent="1" vertex="1">
                    <mxGeometry x="-380" y="645" width="120" height="60" as="geometry"/>
                </mxCell>
                <mxCell id="22" value="useState: formData&lt;br&gt;toggle hide" style="text;html=1;resizable=0;autosize=1;align=center;verticalAlign=middle;points=[];fillColor=none;strokeColor=none;rounded=0;" parent="1" vertex="1">
                    <mxGeometry x="-190" y="70" width="120" height="30" as="geometry"/>
                </mxCell>
                <mxCell id="24" value="useState&lt;br&gt;toggle details" style="text;html=1;resizable=0;autosize=1;align=center;verticalAlign=middle;points=[];fillColor=none;strokeColor=none;rounded=0;" parent="1" vertex="1">
                    <mxGeometry x="-430" y="430" width="90" height="30" as="geometry"/>
                </mxCell>
                <mxCell id="29" value="Route" style="text;html=1;resizable=0;autosize=1;align=center;verticalAlign=middle;points=[];fillColor=none;strokeColor=none;rounded=0;" parent="1" vertex="1">
                    <mxGeometry x="-250" y="50" width="50" height="20" as="geometry"/>
                </mxCell>
                <mxCell id="31" value="Route" style="text;html=1;resizable=0;autosize=1;align=center;verticalAlign=middle;points=[];fillColor=none;strokeColor=none;rounded=0;" parent="1" vertex="1">
                    <mxGeometry x="-320" y="280" width="50" height="20" as="geometry"/>
                </mxCell>
                <mxCell id="32" value="Push Comment&lt;br&gt;Into Array" style="text;html=1;resizable=0;autosize=1;align=center;verticalAlign=middle;points=[];fillColor=none;strokeColor=none;rounded=0;" parent="1" vertex="1">
                    <mxGeometry x="-290" y="550" width="100" height="30" as="geometry"/>
                </mxCell>
                <mxCell id="34" value="Nav Bar&lt;br&gt;" style="whiteSpace=wrap;html=1;" parent="1" vertex="1">
                    <mxGeometry x="-810" y="230" width="120" height="60" as="geometry"/>
                </mxCell>
                <mxCell id="61" style="edgeStyle=none;html=1;exitX=0.5;exitY=1;exitDx=0;exitDy=0;entryX=0.5;entryY=0;entryDx=0;entryDy=0;" parent="1" source="47" target="54" edge="1">
                    <mxGeometry relative="1" as="geometry"/>
                </mxCell>
                <mxCell id="47" value="Favorites" style="whiteSpace=wrap;html=1;" parent="1" vertex="1">
                    <mxGeometry x="-630" y="300" width="120" height="60" as="geometry"/>
                </mxCell>
                <mxCell id="49" value="Route (Sretch)" style="text;html=1;resizable=0;autosize=1;align=center;verticalAlign=middle;points=[];fillColor=none;strokeColor=none;rounded=0;" parent="1" vertex="1">
                    <mxGeometry x="-320" y="430" width="90" height="20" as="geometry"/>
                </mxCell>
                <mxCell id="54" value="Post" style="whiteSpace=wrap;html=1;" parent="1" vertex="1">
                    <mxGeometry x="-630" y="460" width="120" height="60" as="geometry"/>
                </mxCell>
                <mxCell id="55" value="Post" style="whiteSpace=wrap;html=1;" parent="1" vertex="1">
                    <mxGeometry x="-620" y="470" width="120" height="60" as="geometry"/>
                </mxCell>
                <mxCell id="56" value="Post Card" style="whiteSpace=wrap;html=1;" parent="1" vertex="1">
                    <mxGeometry x="-610" y="480" width="120" height="60" as="geometry"/>
                </mxCell>
                <mxCell id="57" style="edgeStyle=none;html=1;entryX=0.5;entryY=0;entryDx=0;entryDy=0;exitX=0.5;exitY=1;exitDx=0;exitDy=0;" parent="1" source="56" target="58" edge="1">
                    <mxGeometry relative="1" as="geometry">
                        <mxPoint x="-520" y="580" as="sourcePoint"/>
                    </mxGeometry>
                </mxCell>
                <mxCell id="58" value="Post Details/Comments" style="whiteSpace=wrap;html=1;" parent="1" vertex="1">
                    <mxGeometry x="-610" y="630" width="120" height="60" as="geometry"/>
                </mxCell>
                <mxCell id="59" value="Push Comment&lt;br&gt;Into Array" style="text;html=1;resizable=0;autosize=1;align=center;verticalAlign=middle;points=[];fillColor=none;strokeColor=none;rounded=0;" parent="1" vertex="1">
                    <mxGeometry x="-680" y="520" width="100" height="30" as="geometry"/>
                </mxCell>
                <mxCell id="60" value="Route (Sretch)" style="text;html=1;resizable=0;autosize=1;align=center;verticalAlign=middle;points=[];fillColor=none;strokeColor=none;rounded=0;" parent="1" vertex="1">
                    <mxGeometry x="-590" y="430" width="90" height="20" as="geometry"/>
                </mxCell>
                <mxCell id="65" value="Route" style="text;html=1;resizable=0;autosize=1;align=center;verticalAlign=middle;points=[];fillColor=none;strokeColor=none;rounded=0;" vertex="1" parent="1">
                    <mxGeometry x="-630" y="270" width="50" height="20" as="geometry"/>
                </mxCell>
                <mxCell id="69" value="Links:&lt;br&gt;Faves, Form,&lt;br&gt;MainContent" style="text;html=1;resizable=0;autosize=1;align=center;verticalAlign=middle;points=[];fillColor=none;strokeColor=none;rounded=0;" vertex="1" parent="1">
                    <mxGeometry x="-820" y="290" width="90" height="50" as="geometry"/>
                </mxCell>
            </root>
        </mxGraphModel>
    </diagram>
</mxfile>